<?xml version="1.0" encoding="utf-8"?>
<svg id="appareils_desktop_smartphone_devices_responsive" xmlns="http://www.w3.org/2000/svg" width="920.2" height="412" viewBox="0 0 920.2 412">
  <path id="Tracé_11933" data-name="Tracé 11933" d="M436.5,410H632.1c7.7,0,7.7-12,0-12H436.5C428.8,398,428.8,410,436.5,410Z" fill="#e6e6e6"/>
  <path id="Tracé_11934" data-name="Tracé 11934" d="M383.7,149.2H188.8A7.81,7.81,0,0,0,181,157v38.7c9.7.2,16,8.3,17.6,18v35.1h.7a.43.43,0,0,1,.4.4v18.7a.43.43,0,0,1-.4.4h-.7V388.2H383.8a7.81,7.81,0,0,0,7.8-7.8V157A7.962,7.962,0,0,0,383.7,149.2Z" fill="#572ce8"/>
  <path id="Tracé_11935" data-name="Tracé 11935" d="M745.9,21.8V233.7H405V140.4a16.047,16.047,0,0,0-16-16H325.1V21.8Z" fill="#572ce8"/>
  <path id="Tracé_11936" data-name="Tracé 11936" d="M766.9,263.6H405.3v-1.5H765.4V12.6A11.139,11.139,0,0,0,754.3,1.5H312.1A11.139,11.139,0,0,0,301,12.6V123.5h-1.5V12.6A12.676,12.676,0,0,1,312.1,0H754.4A12.676,12.676,0,0,1,767,12.6l-.1,251Z" fill="#3f3d56"/>
  <path id="Tracé_11937" data-name="Tracé 11937" d="M732.7,308.6H405.3v-1.5H732.6a32.819,32.819,0,0,0,32.8-32.8V263.5H405.3V262H766.9v12.3A34.206,34.206,0,0,1,732.7,308.6Z" fill="#3f3d56"/>
  <path id="Tracé_11938" data-name="Tracé 11938" d="M635.5,381c-18.2-17.5-30.3-40.4-34.1-72.4H466.9c-1.4,29.9-13.3,52.3-34.8,72.3l-2.3.1c22.2-20.1,34.4-42.7,35.6-73.1v-.7H602.6l.1.7c3.8,32.5,16,55.5,34.7,73.1Z" fill="#3f3d56"/>
  <path id="Tracé_11939" data-name="Tracé 11939" d="M388.6,411.5H181.5V410H388.7a16.047,16.047,0,0,0,16-16V140.8a16.047,16.047,0,0,0-16-16H181.5a16.047,16.047,0,0,0-16,16v54.7H164V140.8a17.584,17.584,0,0,1,17.5-17.5H388.7a17.584,17.584,0,0,1,17.5,17.5V394.1A17.585,17.585,0,0,1,388.6,411.5Z" fill="#3f3d56"/>
  <path id="Tracé_11940" data-name="Tracé 11940" d="M285,142a5,5,0,1,1,5-5A4.951,4.951,0,0,1,285,142Zm0-8.9a3.8,3.8,0,1,0,3.8,3.8h0a3.734,3.734,0,0,0-3.8-3.8Z" fill="#3f3d56"/>
  <path id="Tracé_11941" data-name="Tracé 11941" d="M285,405.9a6.4,6.4,0,1,1,6.4-6.4A6.38,6.38,0,0,1,285,405.9Zm0-11.3a4.9,4.9,0,1,0,4.9,4.9h0A4.784,4.784,0,0,0,285,394.6Z" fill="#3f3d56"/>
  <path id="Tracé_11942" data-name="Tracé 11942" d="M179.4,412H110.8a19.525,19.525,0,0,1-19.5-19.5V214.9a19.525,19.525,0,0,1,19.5-19.5h68.6a19.525,19.525,0,0,1,19.5,19.5v31.8a1.975,1.975,0,0,1,1.2,1.8v20.7a1.975,1.975,0,0,1-1.2,1.8V392.6A19.7,19.7,0,0,1,179.4,412ZM110.8,196.9a18.053,18.053,0,0,0-18,18V392.5a18.053,18.053,0,0,0,18,18h68.6a18.053,18.053,0,0,0,18-18V269.6h.7a.43.43,0,0,0,.4-.4V248.5a.43.43,0,0,0-.4-.4h-.7V215a18.053,18.053,0,0,0-18-18H110.8v-.1Z" fill="#3f3d56"/>
  <path id="Tracé_11943" data-name="Tracé 11943" d="M180.1,201h-9a6.658,6.658,0,0,1-3.6,8.7,6.963,6.963,0,0,1-2.5.5H125.7a6.594,6.594,0,0,1-6.6-6.6,6.963,6.963,0,0,1,.5-2.5h-8.4a14.041,14.041,0,0,0-14,14V392.4a14.041,14.041,0,0,0,14,14h68.9a14.041,14.041,0,0,0,14-14h0V215A13.977,13.977,0,0,0,180.1,201Z" fill="#572ce8"/>
  <path id="Tracé_11944" data-name="Tracé 11944" d="M919.2,411.7H.9a.9.9,0,1,1,0-1.8H919.3a.9.9,0,0,1,.9.9.987.987,0,0,1-1,.9Z" fill="#3f3d56"/>
  <path id="Tracé_11945" data-name="Tracé 11945" d="M636,411.2H431.5a15.5,15.5,0,0,1,0-31H636a15.5,15.5,0,0,1,0,31ZM431.5,381.7a14,14,0,0,0,0,28H636a14,14,0,0,0,0-28Z" fill="#3f3d56"/>
  <path id="Tracé_11946" data-name="Tracé 11946" d="M784.5,293.2l5.7,12,48.9-16.4-8.4-17.7Z" fill="#ffb8b8"/>
  <path id="Tracé_11947" data-name="Tracé 11947" d="M790.1,333.6l-18-37.6h0l14.5-7h0l11.6,24.2a15.015,15.015,0,0,1-7,19.9l-1.1.5Z" fill="#2f2e41"/>
  <path id="Tracé_11948" data-name="Tracé 11948" d="M773,400.1l13.2-.4.6-51.7-15.6,1Z" fill="#ffb8b8"/>
  <path id="Tracé_11949" data-name="Tracé 11949" d="M812,411.9H770.3V395.8h26.8A14.937,14.937,0,0,1,812,410.7v1.2Z" fill="#2f2e41"/>
  <path id="Tracé_11950" data-name="Tracé 11950" d="M774.1,392.4a4.929,4.929,0,0,1-4.8-3.8C762,359.4,735,212.3,758.9,183.4l.2-.3.3-.1c1.7-.4,33.3-10.2,51.9,5.1l.2.2,10.3,29.9,27.9,41.4a20.418,20.418,0,0,1-5.5,28.3c-.2.1-.3.2-.5.3L807,311.3a5,5,0,0,1-7.3-2.5L792,289.6a4.937,4.937,0,0,1,2.4-6.3l17.1-8.6a3.614,3.614,0,0,0,1.8-2.5,2.877,2.877,0,0,0-1-2.5l-19.9-17.2a2.993,2.993,0,0,0-4.2.3,2.7,2.7,0,0,0-.7,2.1l4.9,130.2a4.98,4.98,0,0,1-4.2,5.1l-13.5,2.1C774.6,392.4,774.3,392.4,774.1,392.4Z" fill="#2f2e41"/>
  <path id="Tracé_11951" data-name="Tracé 11951" d="M808.4,193.4h-.3l-49.6-3.7a4.557,4.557,0,0,1-4.2-4.8,5.018,5.018,0,0,1,.2-1.2,47.062,47.062,0,0,0,1.1-27.3c-3.2-12.7-3.3-36.4-3.1-49.4a8.655,8.655,0,0,1,8.3-8.5h1c8.1.1,22.9.7,35.1,3.2a18.475,18.475,0,0,1,14.7,17.7c.3,12.1.3,28.4-1.1,37.7-1.2,7.8,1,22.9,2.4,31.1a4.536,4.536,0,0,1-3.7,5.2Z" fill="#5de8c1"/>
  <path id="Tracé_11952" data-name="Tracé 11952" d="M826.1,240.7a10.04,10.04,0,0,1-4.7-13.4l.9-1.5L799.4,127h17.3l20.2,96.9a10.049,10.049,0,0,1-10.8,16.8Z" fill="#ffb8b8"/>
  <path id="Tracé_11953" data-name="Tracé 11953" d="M717.6,137.7l27.4-26,10.3,14.5L729.5,149l33.9,26.9h.7a10.85,10.85,0,1,1,.1,21.7,10.963,10.963,0,0,1-10.8-9.4l-.1.1L718,157.7a13.562,13.562,0,0,1-1.4-19A4.743,4.743,0,0,1,717.6,137.7Z" fill="#ffb8b8"/>
  <path id="Tracé_11954" data-name="Tracé 11954" d="M801.2,133.3a4.629,4.629,0,0,1-4.1-2.6,52.664,52.664,0,0,1-4.5-14.6c-1.2-8.2,4.5-13.1,10.4-14.2,5.7-1,12.6,1.5,14.3,9.4a13.807,13.807,0,0,1,.3,2c.7,6,1.4,10.7,2,13.9a4.374,4.374,0,0,1-3.6,5.2c-.2,0-.4.1-.6.1l-14.1.7C801.3,133.3,801.3,133.3,801.2,133.3Z" fill="#5de8c1"/>
  <circle id="Ellipse_1580" data-name="Ellipse 1580" cx="30" cy="30" r="30" transform="translate(751.5 39)" fill="#2f2e41"/>
  <circle id="Ellipse_1581" data-name="Ellipse 1581" cx="24.6" cy="24.6" r="24.6" transform="translate(757.1 52.2)" fill="#ffb8b8"/>
  <path id="Tracé_11955" data-name="Tracé 11955" d="M738.1,121.4a4.482,4.482,0,0,1-1.3-4.6,51.539,51.539,0,0,1,6.6-13.8c4.7-6.9,12.2-6.6,17.3-3.5,4.9,3.1,8.3,9.6,4.2,16.6a9.909,9.909,0,0,1-1.1,1.7c-3.5,4.9-6.2,8.8-7.9,11.6a4.424,4.424,0,0,1-6.2,1.4,1.756,1.756,0,0,1-.5-.4l-10.9-9C738.2,121.5,738.2,121.4,738.1,121.4Z" fill="#5de8c1"/>
  <path id="Tracé_11956" data-name="Tracé 11956" d="M775.7,42.2c-6-3.6-7.3-12.6-3.7-18.6s10.9-9.2,17.9-9.4c10-.3,19.7,4.7,26.8,11.9s11.7,16.4,15.2,25.8S838,71,841.4,80.5c1.8,4.8,4,9.8,8.1,12.9s10.6,3.7,14.1-.1c0,6.1-4.7,11.6-10.4,13.4a20.541,20.541,0,0,1-17.3-2.9c-8.8-5.8-13-16.4-15.4-26.6s-3.6-21-8.5-30.3c-2-3.9-4.8-7.5-8.7-9.5s-9.1-1.8-12.2,1.2c-1.4,1.4-2.4,3.3-4,4.5a7.882,7.882,0,0,1-7,.7,26.951,26.951,0,0,1-6.4-3.6" fill="#2f2e41"/>
  <path id="Tracé_11957" data-name="Tracé 11957" d="M756.1,60.2a29.371,29.371,0,0,0,41.1,6c.3-.3.7-.5,1-.8,2.4-1.9,4.6-4.6,4.5-7.7-.2-3.1-2.7-5.6-5.3-7.4A35.076,35.076,0,0,0,774,44.9c-4.7.6-9.4,2.3-12.7,5.7s-5,8.6-3.3,13" fill="#2f2e41"/>
</svg>
