<?xml version="1.0" encoding="utf-8"?>
<svg id="parcours_wireframes_design" xmlns="http://www.w3.org/2000/svg" width="974.9" height="611.9" viewBox="0 0 974.9 611.9">
  <path id="Tracé_14519" data-name="Tracé 14519" d="M657.2,269.3H0V0H657.2ZM2,267.3H655.2V2H2Z" fill="#3f3d56"/>
  <path id="Tracé_14520" data-name="Tracé 14520" d="M92.8,102.6H51.5a145.135,145.135,0,0,1,0-49.2H92.8A89.429,89.429,0,0,0,92.8,102.6Z" fill="#5de8c1"/>
  <path id="Tracé_14521" data-name="Tracé 14521" d="M128.6,123.6h41.3a145.135,145.135,0,0,0,0-49.2H128.6A89.43,89.43,0,0,1,128.6,123.6Z" fill="#e6e6e6"/>
  <path id="Tracé_14522" data-name="Tracé 14522" d="M395.1,133.7h56.1a1.5,1.5,0,0,0,0-3H395.1a1.5,1.5,0,0,0,0,3Z" fill="#e6e6e6"/>
  <path id="Tracé_14523" data-name="Tracé 14523" d="M449.8,119.5l8.8,8c1,.9,3.8,2.8,4.4,4,1.3,2.5-.1,1.9-2.3,2.8a51.709,51.709,0,0,0-14.8,9.2c-1.5,1.3.7,3.4,2.1,2.1a45.811,45.811,0,0,1,13.4-8.4c1.8-.7,5.1-1.1,6-3.2,1-2.6-2.2-4.5-3.8-5.9l-11.7-10.7c-1.4-1.3-3.5.8-2.1,2.1Z" fill="#e6e6e6"/>
  <path id="Tracé_14524" data-name="Tracé 14524" d="M80.6,194.6h41.3a145.135,145.135,0,0,0,0-49.2H80.6A89.429,89.429,0,0,1,80.6,194.6Z" fill="#572ce8"/>
  <path id="Tracé_14525" data-name="Tracé 14525" d="M401.6,98.6h41.3a145.136,145.136,0,0,0,0-49.2H401.6A89.429,89.429,0,0,1,401.6,98.6Z" fill="#572ce8"/>
  <path id="Tracé_14526" data-name="Tracé 14526" d="M270.8,179.5V58l-11-2.5v135l83-.8-.3-10.9Z" fill="#f2f2f2"/>
  <path id="Tracé_14527" data-name="Tracé 14527" d="M352.8,200.7h-100V39.7h100Zm-98-2h96V41.7h-96v157Z" fill="#3f3d56"/>
  <rect id="Rectangle_3240" data-name="Rectangle 3240" width="16.2" height="2" transform="translate(261.8 49.7)" fill="#3f3d56"/>
  <rect id="Rectangle_3241" data-name="Rectangle 3241" width="16.2" height="2" transform="translate(261.8 54.7)" fill="#3f3d56"/>
  <rect id="Rectangle_3242" data-name="Rectangle 3242" width="16.2" height="2" transform="translate(261.8 59.7)" fill="#3f3d56"/>
  <rect id="Rectangle_3243" data-name="Rectangle 3243" width="69.2" height="2" transform="translate(269.8 145.7)" fill="#3f3d56"/>
  <rect id="Rectangle_3244" data-name="Rectangle 3244" width="69.2" height="2" transform="translate(269.8 156.7)" fill="#3f3d56"/>
  <rect id="Rectangle_3245" data-name="Rectangle 3245" width="69.2" height="2" transform="translate(269.8 167.7)" fill="#3f3d56"/>
  <path id="Tracé_14528" data-name="Tracé 14528" d="M337.8,62.7a7,7,0,1,1,7-7h0A7.02,7.02,0,0,1,337.8,62.7Zm0-12a5,5,0,1,0,5,5A4.951,4.951,0,0,0,337.8,50.7Z" fill="#3f3d56"/>
  <path id="Tracé_14529" data-name="Tracé 14529" d="M339.8,122.7h-71v-46h71Zm-69-2h67v-42h-67Z" fill="#3f3d56"/>
  <rect id="Rectangle_3246" data-name="Rectangle 3246" width="2" height="81.8" transform="matrix(0.538, -0.843, 0.843, 0.538, 269.302, 78.577)" fill="#3f3d56"/>
  <rect id="Rectangle_3247" data-name="Rectangle 3247" width="81.8" height="2" transform="matrix(0.843, -0.538, 0.538, 0.843, 269.296, 120.86)" fill="#3f3d56"/>
  <path id="Tracé_14530" data-name="Tracé 14530" d="M524.8,179.5V58l-11-2.5v135l83-.8-.3-10.9Z" fill="#f2f2f2"/>
  <path id="Tracé_14531" data-name="Tracé 14531" d="M607.8,198.7h-100V37.7h100Zm-98-2h96V39.7h-96Z" fill="#3f3d56"/>
  <rect id="Rectangle_3248" data-name="Rectangle 3248" width="16.2" height="2" transform="translate(516.8 47.7)" fill="#3f3d56"/>
  <rect id="Rectangle_3249" data-name="Rectangle 3249" width="16.2" height="2" transform="translate(516.8 52.7)" fill="#3f3d56"/>
  <rect id="Rectangle_3250" data-name="Rectangle 3250" width="16.2" height="2" transform="translate(516.8 57.7)" fill="#3f3d56"/>
  <path id="Tracé_14532" data-name="Tracé 14532" d="M592.8,60.7a7,7,0,1,1,7-7A6.957,6.957,0,0,1,592.8,60.7Zm0-12a5,5,0,1,0,5,5A4.951,4.951,0,0,0,592.8,48.7Z" fill="#3f3d56"/>
  <path id="Tracé_14533" data-name="Tracé 14533" d="M594.8,120.7h-71v-46h71Zm-69-2h67v-42h-67Z" fill="#3f3d56"/>
  <rect id="Rectangle_3251" data-name="Rectangle 3251" width="2" height="81.8" transform="matrix(0.538, -0.843, 0.843, 0.538, 524.323, 76.567)" fill="#3f3d56"/>
  <rect id="Rectangle_3252" data-name="Rectangle 3252" width="81.8" height="2" transform="matrix(0.843, -0.538, 0.538, 0.843, 524.28, 118.846)" fill="#3f3d56"/>
  <path id="Tracé_14534" data-name="Tracé 14534" d="M594.8,180.7h-71v-46h71Zm-69-2h67v-42h-67Z" fill="#3f3d56"/>
  <rect id="Rectangle_3253" data-name="Rectangle 3253" width="2" height="81.8" transform="matrix(0.538, -0.843, 0.843, 0.538, 524.379, 136.487)" fill="#3f3d56"/>
  <rect id="Rectangle_3254" data-name="Rectangle 3254" width="81.8" height="2" transform="matrix(0.843, -0.538, 0.538, 0.843, 524.281, 178.847)" fill="#3f3d56"/>
  <path id="Tracé_14535" data-name="Tracé 14535" d="M287.6,231.6h41.3a145.136,145.136,0,0,0,0-49.2H287.6A89.429,89.429,0,0,1,287.6,231.6Z" fill="#572ce8"/>
  <circle id="Ellipse_2084" data-name="Ellipse 2084" cx="29.3" cy="29.3" r="29.3" transform="matrix(0.877, -0.48, 0.48, 0.877, 745.615, 192.534)" fill="#ffb8b8"/>
  <circle id="Ellipse_2085" data-name="Ellipse 2085" cx="25.9" cy="25.9" r="25.9" transform="translate(805.4 142)" fill="#2f2e41"/>
  <path id="Tracé_14536" data-name="Tracé 14536" d="M853.6,189.3a25.812,25.812,0,0,1-40-13.6,25.9,25.9,0,0,0,51.4-6.4,31.481,31.481,0,0,0-.9-4.2A25.694,25.694,0,0,1,853.6,189.3Z" fill="#2f2e41"/>
  <path id="Tracé_14537" data-name="Tracé 14537" d="M751.5,189.3c4.5-8.1,6.2-11.5,12.1-16.4,5.2-4.4,11.5-5.6,16.6-1.5a30.66,30.66,0,1,1-16,40.3,29.813,29.813,0,0,1-2.5-12.1c0-1.2.1-2.3.2-3.5C757.4,195.5,755.9,190,751.5,189.3Z" fill="#2f2e41"/>
  <path id="Tracé_14538" data-name="Tracé 14538" d="M714.5,597.7l-13.3-3.9,8.6-53.5,19.7,5.8Z" fill="#ffb8b8"/>
  <path id="Tracé_14539" data-name="Tracé 14539" d="M690.8,586.6l27.8,8.1h0L713.9,611h0l-42.1-12.2h0l.6-2A14.9,14.9,0,0,1,690.8,586.6Z" fill="#2f2e41"/>
  <path id="Tracé_14540" data-name="Tracé 14540" d="M852.9,598h-14l-6.6-53.7h20.6Z" fill="#ffb8b8"/>
  <path id="Tracé_14541" data-name="Tracé 14541" d="M826.9,594h28.9v17H812v-2a15.023,15.023,0,0,1,14.9-15Z" fill="#2f2e41"/>
  <path id="Tracé_14542" data-name="Tracé 14542" d="M820.1,410.9a11.511,11.511,0,0,1,1.5-16.1,9.908,9.908,0,0,1,1.7-1.1l-7.2-40,19.4,8.3,3.9,36.7a11.5,11.5,0,0,1-19.3,12.2Z" fill="#ffb8b8"/>
  <path id="Tracé_14543" data-name="Tracé 14543" d="M830.5,315.1,807.7,246c-.5-.8-6.1-9.7-18.5-5.9a10.43,10.43,0,0,0-6.4,5.2c-3.6,6.9-.2,17.6-.2,17.7l28,62.8v.1l8.9,64.5,19.1-3.9Z" fill="#572ce8"/>
  <path id="Tracé_14544" data-name="Tracé 14544" d="M679.1,571l34.3-105.1L753.2,375l-.6-44.1,47.2-11,5.5,18.5c31.8,21,21.3,61.3,20.6,64L873.6,579l-52.2,5.8-35-167.3-32.3,68L731.3,587.2Z" fill="#2f2e41"/>
  <path id="Tracé_14545" data-name="Tracé 14545" d="M749.2,293.9c-9.4-18-2.6-24.8,7.7-35.2a145.608,145.608,0,0,0,11.8-13c16-20.6,34.6-10.5,34.7-10.4l.1.1,4.6,6.9c15.1,15.2-7.8,57-9.5,60.1l1.1,29.9L751,336.9Z" fill="#572ce8"/>
  <path id="Tracé_14546" data-name="Tracé 14546" d="M767.7,409.3a11.394,11.394,0,0,1,5.6-15.2,10.664,10.664,0,0,1,1.9-.7l3.1-40.5L795,365.8l-5.5,36.5a11.531,11.531,0,0,1-21.8,7Z" fill="#ffb8b8"/>
  <path id="Tracé_14547" data-name="Tracé 14547" d="M771.3,390.3l7.9-65.6L768,256.8c0-.5-.6-11.7,4.9-17.8a11.227,11.227,0,0,1,8.2-3.7c14-.6,17.4,11.1,17.4,11.2l4.6,72.9-10.3,72.1Z" fill="#572ce8"/>
  <path id="Tracé_14548" data-name="Tracé 14548" d="M592.9,611.9h381a1,1,0,0,0,0-2h-381a.945.945,0,0,0-1,1A1,1,0,0,0,592.9,611.9Z" fill="#ccc"/>
</svg>
