<?xml version="1.0" encoding="utf-8"?>
<svg id="heatmap_smartphone_site_design" xmlns="http://www.w3.org/2000/svg" width="831.1" height="647" viewBox="0 0 831.1 647">
  <path id="Tracé_13480" data-name="Tracé 13480" d="M31.9,0A31.923,31.923,0,0,0,0,31.9V615a31.944,31.944,0,0,0,31.9,32H351.3a31.923,31.923,0,0,0,31.9-31.9V31.9A31.8,31.8,0,0,0,351.3,0Z" fill="#e6e6e6"/>
  <path id="Tracé_13481" data-name="Tracé 13481" d="M42.4,18.2A24.156,24.156,0,0,0,18.2,42.4V604.6a24.22,24.22,0,0,0,24.2,24.2H340.9a24.22,24.22,0,0,0,24.2-24.2V42.4a24.22,24.22,0,0,0-24.2-24.2Z" fill="#fff"/>
  <path id="Tracé_13482" data-name="Tracé 13482" d="M335.8,136.6H47.5a5.335,5.335,0,0,1-5.3-5.3V59.8a5.335,5.335,0,0,1,5.3-5.3H335.8a5.335,5.335,0,0,1,5.3,5.3v71.5A5.271,5.271,0,0,1,335.8,136.6ZM47.5,56.6a3.159,3.159,0,0,0-3.2,3.2v71.5a3.159,3.159,0,0,0,3.2,3.2H335.8a3.159,3.159,0,0,0,3.2-3.2V59.8a3.159,3.159,0,0,0-3.2-3.2Z" fill="#e6e6e6"/>
  <path id="Tracé_13483" data-name="Tracé 13483" d="M335.8,419.6H47.5a5.335,5.335,0,0,1-5.3-5.3V281.9a5.335,5.335,0,0,1,5.3-5.3H335.8a5.335,5.335,0,0,1,5.3,5.3V414.3A5.335,5.335,0,0,1,335.8,419.6ZM47.5,278.7a3.159,3.159,0,0,0-3.2,3.2V414.3a3.159,3.159,0,0,0,3.2,3.2H335.8a3.159,3.159,0,0,0,3.2-3.2V281.9a3.159,3.159,0,0,0-3.2-3.2Z" fill="#e6e6e6"/>
  <path id="Tracé_13484" data-name="Tracé 13484" d="M333.6,247.7H205.5a5.335,5.335,0,0,1-5.3-5.3V170.9a5.335,5.335,0,0,1,5.3-5.3H333.6a5.335,5.335,0,0,1,5.3,5.3v71.5A5.209,5.209,0,0,1,333.6,247.7ZM205.5,167.6a3.159,3.159,0,0,0-3.2,3.2v71.5a3.159,3.159,0,0,0,3.2,3.2H333.6a3.159,3.159,0,0,0,3.2-3.2V170.8a3.159,3.159,0,0,0-3.2-3.2Z" fill="#e6e6e6"/>
  <path id="Tracé_13485" data-name="Tracé 13485" d="M175.6,592.5H47.5a5.335,5.335,0,0,1-5.3-5.3V453.8a5.335,5.335,0,0,1,5.3-5.3H175.6a5.335,5.335,0,0,1,5.3,5.3V587.2A5.209,5.209,0,0,1,175.6,592.5ZM47.5,450.6a3.159,3.159,0,0,0-3.2,3.2V587.2a3.159,3.159,0,0,0,3.2,3.2H175.6a3.159,3.159,0,0,0,3.2-3.2V453.8a3.159,3.159,0,0,0-3.2-3.2Z" fill="#e6e6e6"/>
  <path id="Tracé_13486" data-name="Tracé 13486" d="M333.6,592.5H205.5a5.335,5.335,0,0,1-5.3-5.3V453.8a5.335,5.335,0,0,1,5.3-5.3H333.6a5.335,5.335,0,0,1,5.3,5.3V587.2A5.209,5.209,0,0,1,333.6,592.5ZM205.5,450.6a3.159,3.159,0,0,0-3.2,3.2V587.2a3.159,3.159,0,0,0,3.2,3.2H333.6a3.159,3.159,0,0,0,3.2-3.2V453.8a3.159,3.159,0,0,0-3.2-3.2Z" fill="#e6e6e6"/>
  <circle id="Ellipse_1942" data-name="Ellipse 1942" cx="21.7" cy="21.7" r="21.7" transform="translate(68.5 301.7)" fill="#e6e6e6"/>
  <path id="Tracé_13487" data-name="Tracé 13487" d="M140.4,308.9a3.6,3.6,0,1,0,0,7.2H311.3a3.6,3.6,0,0,0,0-7.2Z" fill="#e6e6e6"/>
  <path id="Tracé_13488" data-name="Tracé 13488" d="M140.4,330.7a3.6,3.6,0,0,0,0,7.2h73.5a3.6,3.6,0,1,0,0-7.2Z" fill="#e6e6e6"/>
  <path id="Tracé_13489" data-name="Tracé 13489" d="M73.5,365.4c-2.8,0-5,1.6-5,3.6s2.2,3.6,5,3.6H309.2c2.8,0,5-1.6,5-3.6s-2.2-3.6-5-3.6Z" fill="#e6e6e6"/>
  <path id="Tracé_13490" data-name="Tracé 13490" d="M73.5,387.2c-2.8,0-5,1.6-5,3.6s2.2,3.6,5,3.6H309.2c2.8,0,5-1.6,5-3.6s-2.2-3.6-5-3.6Z" fill="#e6e6e6"/>
  <circle id="Ellipse_1943" data-name="Ellipse 1943" cx="21.7" cy="21.7" r="21.7" transform="translate(70.6 71.1)" fill="#e6e6e6"/>
  <path id="Tracé_13491" data-name="Tracé 13491" d="M142.5,78.3a3.6,3.6,0,1,0,0,7.2H313.4a3.6,3.6,0,1,0,0-7.2H142.5Z" fill="#e6e6e6"/>
  <path id="Tracé_13492" data-name="Tracé 13492" d="M142.5,100.1a3.6,3.6,0,1,0,0,7.2H216a3.6,3.6,0,1,0,0-7.2H142.5Z" fill="#e6e6e6"/>
  <path id="Tracé_13493" data-name="Tracé 13493" d="M175.5,247.7H55.3l28.3-49a5.739,5.739,0,0,1,7.9-2.1,5.3,5.3,0,0,1,2.1,2.1l12.1,20.9L126.2,184a7.2,7.2,0,0,1,9.9-2.6,6.506,6.506,0,0,1,2.6,2.6ZM59,245.6H171.8l-34.9-60.4a5.175,5.175,0,0,0-7-1.9,4.953,4.953,0,0,0-1.9,1.9L105.6,224,91.7,199.9a3.688,3.688,0,0,0-5-1.3,3.251,3.251,0,0,0-1.3,1.3Z" fill="#e6e6e6"/>
  <path id="Tracé_13494" data-name="Tracé 13494" d="M329.3,247.7H209.1l28.3-49a5.739,5.739,0,0,1,7.9-2.1,5.3,5.3,0,0,1,2.1,2.1l12.1,20.9L280,184a7.2,7.2,0,0,1,9.9-2.6,6.506,6.506,0,0,1,2.6,2.6Zm-116.5-2.1H325.6l-34.9-60.4a5.175,5.175,0,0,0-7-1.9,4.953,4.953,0,0,0-1.9,1.9L259.4,224l-13.9-24.1a3.688,3.688,0,0,0-5-1.3,3.25,3.25,0,0,0-1.3,1.3Z" fill="#e6e6e6"/>
  <path id="Tracé_13495" data-name="Tracé 13495" d="M175.6,247.7H47.5a5.335,5.335,0,0,1-5.3-5.3V170.9a5.335,5.335,0,0,1,5.3-5.3H175.6a5.335,5.335,0,0,1,5.3,5.3v71.5A5.209,5.209,0,0,1,175.6,247.7ZM47.5,167.6a3.159,3.159,0,0,0-3.2,3.2v71.5a3.159,3.159,0,0,0,3.2,3.2H175.6a3.159,3.159,0,0,0,3.2-3.2V170.8a3.159,3.159,0,0,0-3.2-3.2Z" fill="#e6e6e6"/>
  <path id="Tracé_13496" data-name="Tracé 13496" d="M74.8,475.9a3.6,3.6,0,0,0,0,7.2h73.5a3.6,3.6,0,0,0,0-7.2H74.8Z" fill="#e6e6e6"/>
  <path id="Tracé_13497" data-name="Tracé 13497" d="M74.8,497.3a3.6,3.6,0,0,0,0,7.2h73.5a3.6,3.6,0,0,0,0-7.2H74.8Z" fill="#e6e6e6"/>
  <path id="Tracé_13498" data-name="Tracé 13498" d="M111.6,565a22.8,22.8,0,1,1,22.8-22.8h0A22.79,22.79,0,0,1,111.6,565Zm0-43.5a20.7,20.7,0,1,0,20.7,20.7h0a20.806,20.806,0,0,0-20.7-20.7Z" fill="#e6e6e6"/>
  <path id="Tracé_13499" data-name="Tracé 13499" d="M306.3,565a3.6,3.6,0,1,0,0-7.2H232.8a3.6,3.6,0,1,0,0,7.2Z" fill="#e6e6e6"/>
  <path id="Tracé_13500" data-name="Tracé 13500" d="M306.3,543.7a3.6,3.6,0,1,0,0-7.2H232.8a3.6,3.6,0,1,0,0,7.2Z" fill="#e6e6e6"/>
  <path id="Tracé_13501" data-name="Tracé 13501" d="M269.6,475.9a22.8,22.8,0,1,1-22.8,22.8h0A22.919,22.919,0,0,1,269.6,475.9Zm0,43.5a20.7,20.7,0,1,0-20.7-20.7h0a20.677,20.677,0,0,0,20.7,20.7Z" fill="#e6e6e6"/>
  <circle id="Ellipse_1944" data-name="Ellipse 1944" cx="54" cy="54" r="54" transform="translate(180.6 78.2)" fill="#572ce8" opacity="0.3"/>
  <circle id="Ellipse_1945" data-name="Ellipse 1945" cx="36" cy="36" r="36" transform="translate(198.6 96.2)" fill="#572ce8" opacity="0.3"/>
  <circle id="Ellipse_1946" data-name="Ellipse 1946" cx="25" cy="25" r="25" transform="translate(209.6 107.2)" fill="#572ce8"/>
  <circle id="Ellipse_1947" data-name="Ellipse 1947" cx="39.9" cy="39.9" r="39.9" transform="translate(71.7 457.3)" fill="#572ce8" opacity="0.3"/>
  <circle id="Ellipse_1948" data-name="Ellipse 1948" cx="26.6" cy="26.6" r="26.6" transform="translate(85 470.6)" fill="#572ce8" opacity="0.3"/>
  <circle id="Ellipse_1949" data-name="Ellipse 1949" cx="18.5" cy="18.5" r="18.5" transform="translate(93.1 478.7)" fill="#572ce8"/>
  <circle id="Ellipse_1950" data-name="Ellipse 1950" cx="45.9" cy="45.9" r="45.9" transform="translate(231.7 295.3)" fill="#572ce8" opacity="0.3"/>
  <circle id="Ellipse_1951" data-name="Ellipse 1951" cx="30.6" cy="30.6" r="30.6" transform="translate(247 310.6)" fill="#572ce8" opacity="0.3"/>
  <circle id="Ellipse_1952" data-name="Ellipse 1952" cx="21.3" cy="21.3" r="21.3" transform="translate(256.3 319.9)" fill="#572ce8"/>
  <path id="Tracé_13502" data-name="Tracé 13502" d="M491.1,412.5l-9.4,16a11.931,11.931,0,0,1-16.3,4.2,9.579,9.579,0,0,1-2.5-2h0a11.861,11.861,0,0,1,.3-16.8,6.886,6.886,0,0,1,1.3-1.1l15.4-11.1c14.8-20,23.2-53.9,30.5-90.6l30,3.5C532.5,344.5,514,377.8,491.1,412.5Z" fill="#ffb8b8"/>
  <path id="Tracé_13503" data-name="Tracé 13503" d="M494.8,321.7l48.8,13.8V250.3l-6.5,2.1a37.462,37.462,0,0,0-24.2,24.2Z" fill="#5de8c1"/>
  <path id="Tracé_13504" data-name="Tracé 13504" d="M594.6,627l-18.2-.7c-6-61.6-13.6-117.5-29.1-146.5-15,16.1-18.5,67-21,136.3H508.6c-18.6-79.8-23.2-136.4,0-190.2h94.7Z" fill="#2f2e41"/>
  <path id="Tracé_13505" data-name="Tracé 13505" d="M527.4,628.4l-31.6,16.2a7.074,7.074,0,0,1-9.4-3c-.1-.1-.1-.3-.2-.4h0a6.9,6.9,0,0,1,2.8-8.7l4.3-2.6,12-17.9,20.5-1.6,3.7,3.6a9.118,9.118,0,0,1,.3,12.8A24.978,24.978,0,0,1,527.4,628.4Z" fill="#2f2e41"/>
  <path id="Tracé_13506" data-name="Tracé 13506" d="M591.7,643.5l-35.5,1a7.085,7.085,0,0,1-7.2-6.8v-.4h0a6.991,6.991,0,0,1,6.3-6.7l5-.5,18.6-11,19.2,7.3,1.8,4.8a9.094,9.094,0,0,1-5.2,11.7A8.024,8.024,0,0,1,591.7,643.5Z" fill="#2f2e41"/>
  <circle id="Ellipse_1953" data-name="Ellipse 1953" cx="23.8" cy="23.8" r="23.8" transform="translate(531.8 186.9)" fill="#ffb8b8"/>
  <path id="Tracé_13507" data-name="Tracé 13507" d="M594.6,248.8l-49.5,18.9c2.9-15.6,2.9-30.2-1.8-43.4l31.7-5.5C572.3,232.6,580.5,241.9,594.6,248.8Z" fill="#ffb8b8"/>
  <path id="Tracé_13508" data-name="Tracé 13508" d="M615,439.7c-43.6,8.3-78.7,3-107.1-13.1,13.1-45.2,15-95.3,11.6-147.6a25.31,25.31,0,0,1,15.4-24.9l12.4-5.3c6.7,15.2,22.2,6.5,38.6-5.1l20.3,9a17.343,17.343,0,0,1,10.3,16.9C612.5,339.1,607,413.6,615,439.7Z" fill="#5de8c1"/>
  <path id="Tracé_13509" data-name="Tracé 13509" d="M629.6,429.5l-1.3,18.6A12.761,12.761,0,0,1,614.7,460h0a12.862,12.862,0,0,1-10.1-19.6L615,423.7c6.2-24.1,1.3-58.7-5.8-95.5l29.1-8C642.5,351,637.8,388.8,629.6,429.5Z" fill="#ffb8b8"/>
  <path id="Tracé_13510" data-name="Tracé 13510" d="M582.8,195.2s4.5-9.8-7.1-14.2c0,0-9.8-16-29.4-5.3,0,0-13.4,5.3-13.4,19.6s-4.5,16.9-4.5,16.9,6.6-6.8,8.4-12.1,15.6-6.6,21-1.2,18.7,4.5,18.7,4.5l-.9,19.6s4.5-11.6,6.2-11.6S585.5,195.2,582.8,195.2Z" fill="#2f2e41"/>
  <path id="Tracé_13511" data-name="Tracé 13511" d="M648.6,321l-48.8,13.8V249.6l6.5,2.1a37.462,37.462,0,0,1,24.2,24.2Z" fill="#5de8c1"/>
  <rect id="Rectangle_3028" data-name="Rectangle 3028" width="606.1" height="2" transform="translate(225 644.5)" fill="#e6e6e6"/>
</svg>
